<svg class="svg-icon" style="width: 1.017578125em; height: 1em;vertical-align: middle;fill: currentColor;overflow: hidden;" viewBox="0 0 1042 1024" version="1.1" xmlns="http://www.w3.org/2000/svg"><path d="M53.527273 956.509091c-30.254545 0-53.527273-23.272727-53.527273-53.527273V279.272727c0-30.254545 23.272727-53.527273 53.527273-53.527272h132.654545c32.581818-4.654545 76.8-16.290909 88.436364-55.854546l9.309091-46.545454c9.309091-44.218182 62.836364-51.2 100.072727-53.527273h274.618182c74.472727 0 93.090909 37.236364 97.745454 53.527273l11.636364 55.854545c11.636364 25.6 32.581818 39.563636 62.836364 46.545455h158.254545c30.254545 0 53.527273 23.272727 53.527273 53.527272v623.709091c0 30.254545-23.272727 53.527273-53.527273 53.527273H53.527273zM407.272727 125.672727c-44.218182 0-53.527273 20.945455-65.163636 51.2l-9.309091 30.254546c-23.272727 58.181818-114.036364 69.818182-153.6 72.145454H104.727273c-44.218182 0-48.872727 18.618182-48.872728 34.909091v542.254546c0 32.581818 9.309091 44.218182 32.581819 44.218181h856.436363c25.6 0 41.890909-16.290909 41.890909-44.218181V314.181818c0-13.963636-4.654545-34.909091-48.872727-34.909091h-130.327273c-53.527273-9.309091-88.436364-37.236364-97.745454-79.127272l-9.309091-25.6-6.981818-13.963637c-9.309091-18.618182-16.290909-37.236364-51.2-37.236363l-235.054546 2.327272zM521.309091 851.781818c-144.290909 0-260.654545-116.363636-260.654546-260.654545s116.363636-260.654545 260.654546-260.654546 260.654545 116.363636 260.654545 260.654546-116.363636 260.654545-260.654545 260.654545z m0-467.781818c-114.036364 0-204.8 93.090909-204.8 204.8s93.090909 204.8 204.8 204.8c114.036364 0 204.8-93.090909 204.8-204.8s-90.763636-204.8-204.8-204.8z m-158.254546 207.127273V581.818182c4.654545-81.454545 67.490909-146.618182 148.945455-148.945455h9.309091v30.254546h-9.309091c-65.163636 2.327273-116.363636 55.854545-121.018182 121.018182v9.30909l-27.927273-2.327272z m546.909091-181.527273c-30.254545 0-53.527273-23.272727-53.527272-53.527273s23.272727-53.527273 53.527272-53.527272c30.254545 0 53.527273 23.272727 53.527273 53.527272s-23.272727 53.527273-53.527273 53.527273z"  /></svg>