<svg class="svg-icon" style="width: 1em; height: 1em;vertical-align: middle;fill: currentColor;overflow: hidden;" viewBox="0 0 1024 1024" version="1.1" xmlns="http://www.w3.org/2000/svg"><path d="M694.6 218.5c14.7 0 27.3 10 30.6 24.4l11.1 49.3H290.2l11.1-49.3c3.2-14.4 15.8-24.4 30.6-24.4h362.7m0-20H331.9c-24 0-44.8 16.6-50.1 40l-16.6 73.7h496.1l-16.6-73.7c-5.3-23.4-26.1-40-50.1-40z" fill="#3983FD" /><path d="M869.9 311.8c22.1 0 40 17.9 40 40v415.6c0 22.1-17.9 40-40 40H156.6c-22.1 0-40-17.9-40-40V356.8c0-24.8 20.2-45 45-45h708.3m0-20H161.6c-35.9 0-65 29.1-65 65v410.6c0 33.1 26.9 60 60 60h713.3c33.1 0 60-26.9 60-60V351.8c0-33.1-26.8-60-60-60z" fill="#3983FD" /><path d="M513.3 566.1m-174.9 0a174.9 174.9 0 1 0 349.8 0 174.9 174.9 0 1 0-349.8 0Z" fill="#83FCE5" /><path d="M513.3 401.2c44 0 85.5 17.2 116.6 48.3 31.1 31.1 48.3 72.6 48.3 116.6s-17.2 85.5-48.3 116.6c-31.1 31.1-72.6 48.3-116.6 48.3s-85.5-17.2-116.6-48.3-48.3-72.6-48.3-116.6 17.2-85.5 48.3-116.6c31.1-31.1 72.5-48.3 116.6-48.3m0-10c-96.6 0-174.9 78.3-174.9 174.9S416.7 741 513.3 741s174.9-78.3 174.9-174.9-78.3-174.9-174.9-174.9z" fill="#3983FD" /><path d="M770.8 379.5m-20.5 0a20.5 20.5 0 1 0 41 0 20.5 20.5 0 1 0-41 0Z" fill="#83FCE5" /><path d="M770.8 369c5.8 0 10.5 4.7 10.5 10.5s-4.7 10.5-10.5 10.5-10.5-4.7-10.5-10.5S765 369 770.8 369m0-10c-11.3 0-20.5 9.2-20.5 20.5s9.2 20.5 20.5 20.5 20.5-9.2 20.5-20.5-9.2-20.5-20.5-20.5z" fill="#3983FD" /></svg>