<svg class="svg-icon" style="width: 1em; height: 1em;vertical-align: middle;fill: currentColor;overflow: hidden;" viewBox="0 0 1024 1024" version="1.1" xmlns="http://www.w3.org/2000/svg"><path d="M512 693.76c125.44 0 225.28-102.4 225.28-225.28L737.28 225.28C739.84 102.4 637.44 0 512 0s-225.28 102.4-225.28 225.28l0 243.2C286.72 593.92 389.12 693.76 512 693.76zM337.92 225.28C337.92 130.56 417.28 51.2 512 51.2s174.08 79.36 174.08 174.08l0 243.2c0 97.28-79.36 174.08-174.08 174.08-97.28 0-174.08-79.36-174.08-174.08L337.92 225.28z"  /><path d="M919.04 384c-15.36 0-25.6 10.24-25.6 25.6l0 74.24C893.44 668.16 742.4 819.2 558.08 819.2l-92.16 0C281.6 819.2 130.56 668.16 130.56 481.28L130.56 409.6c0-15.36-10.24-25.6-25.6-25.6-15.36 0-25.6 10.24-25.6 25.6l0 74.24C79.36 696.32 250.88 870.4 465.92 870.4L486.4 870.4l0 102.4-53.76 0c-15.36 0-25.6 10.24-25.6 25.6 0 15.36 10.24 25.6 25.6 25.6l168.96 0c15.36 0 25.6-10.24 25.6-25.6 0-15.36-10.24-25.6-25.6-25.6L537.6 972.8l0-102.4 20.48 0c212.48 0 386.56-174.08 386.56-386.56L944.64 409.6C944.64 394.24 934.4 384 919.04 384z"  /></svg>