<svg class="svg-icon" style="width: 1em; height: 1em;vertical-align: middle;fill: currentColor;overflow: hidden;" viewBox="0 0 1024 1024" version="1.1" xmlns="http://www.w3.org/2000/svg"><path d="M875.52 320C875.52 320 875.52 320 875.52 320L875.52 320l-66.56 0c-15.36 0-25.6 10.24-25.6 25.6s10.24 25.6 25.6 25.6l66.56 0 0 0c0 0 0 0 0 0 15.36 0 25.6-10.24 25.6-25.6S888.32 320 875.52 320z"  /><path d="M506.88 325.12c-128 0-232.96 104.96-232.96 232.96 0 128 104.96 232.96 232.96 232.96 128 0 232.96-104.96 232.96-232.96C739.84 430.08 634.88 325.12 506.88 325.12zM506.88 737.28c-99.84 0-181.76-81.92-181.76-181.76 0-99.84 81.92-181.76 181.76-181.76 99.84 0 181.76 81.92 181.76 181.76C688.64 657.92 606.72 737.28 506.88 737.28z"  /><path d="M924.16 197.12l-125.44 0c-17.92-79.36-46.08-102.4-51.2-104.96l0 0c-5.12-2.56-10.24-5.12-15.36-5.12L289.28 87.04c-5.12 0-10.24 2.56-15.36 5.12l0 0c-5.12 5.12-33.28 28.16-51.2 104.96L99.84 197.12C46.08 197.12 0 243.2 0 299.52l0 537.6c0 56.32 46.08 99.84 99.84 99.84l821.76 0c56.32 0 99.84-46.08 99.84-99.84l0-537.6C1024 243.2 977.92 197.12 924.16 197.12zM302.08 135.68l417.28 0c5.12 5.12 15.36 23.04 25.6 61.44L276.48 197.12C286.72 158.72 296.96 140.8 302.08 135.68zM972.8 837.12c0 28.16-23.04 48.64-48.64 48.64L99.84 885.76c-28.16 0-48.64-23.04-48.64-48.64l0-537.6c0-28.16 23.04-48.64 48.64-48.64l821.76 0c28.16 0 48.64 23.04 48.64 48.64L970.24 837.12z"  /></svg>